# File created by Blade
# Date/Time:  Tue Jan 27 18:35:12 2015
#---------------------------------------------------------
:version 1.10
:name HOM
:units
  mass 1.0
  length 1.000000
  angle deg
:documentation
     Acclaim Skeleton File
:root
   axis xyz
   order TX TY TZ RX RY RZ
   position 0.000000 0.000000 0.000000
   orientation 0 0 0
:bonedata
   begin
      id 1
      name Spine_dum
      direction 0.000000 1.000000 0.000000
      length 5.195262
      axis 0.0 0.0 0.0 xyz
   end
   begin
      id 2
      name LeftUpLeg_dum
      direction 1.000000 0.000000 0.000000
      length 3.351363
      axis 0.0 0.0 0.0 xyz
   end
   begin
      id 3
      name RightUpLeg_dum
      direction -1.000000 0.000000 0.000000
      length 3.351363
      axis 0.0 0.0 0.0 xyz
   end
   begin
      id 4
      name Spine
      direction 0.000000 1.000000 0.000000
      length 0.000000
      axis 0.0 0.0 0.0 xyz
      dof rx ry rz
   end
   begin
      id 5
      name Spine_dum1
      direction 0.000000 1.000000 0.000000
      length 15.653875
      axis 0.0 0.0 0.0 xyz
   end
   begin
      id 6
      name Spine_dum2
      direction 0.000000 1.000000 0.000000
      length 10.329768
      axis 0.0 0.0 0.0 xyz
   end
   begin
      id 7
      name Spine_dum3
      direction 0.000000 1.000000 0.000000
      length 10.329768
      axis 0.0 0.0 0.0 xyz
   end
   begin
      id 8
      name Head
      direction 0.000000 1.000000 0.000000
      length 4.527550
      axis 0.0 0.0 0.0 xyz
      dof rx ry rz
   end
   begin
      id 9
      name LeftShoulder
      direction 1.000000 0.000000 0.000000
      length 6.996006
      axis 0.0 0.0 -90.0 xyz
      dof rx ry rz
   end
   begin
      id 10
      name LeftArm
      direction 1.000000 0.000000 0.000000
      length 10.209302
      axis 0.0 0.0 -90.0 xyz
      dof rx ry rz
   end
   begin
      id 11
      name LeftForeArm
      direction 1.000000 0.000000 0.000000
      length 8.563163
      axis 0.0 0.0 -90.0 xyz
      dof ry rz rx
   end
   begin
      id 12
      name LeftHand
      direction 0.000000 0.000000 0.000000
      length 0.000000
      axis 0.0 0.0 -90.0 xyz
      dof rx ry rz
   end
   begin
      id 13
      name LeftHand_dum1
      direction 0.000000 0.000000 0.000000
      length 0.000000
      axis 0.0 0.0 -90.0 xyz
   end
   begin
      id 14
      name LeftHand_dum2
      direction 1.000000 0.000000 0.000000
      length 3.937000
      axis 0.0 0.0 -90.0 xyz
   end
   begin
      id 15
      name LeftHandThumb1
      direction 0.000000 0.000000 1.000000
      length 3.937000
      axis 0.0 0.0 -90.0 xyz
      dof rx rz ry
   end
   begin
      id 16
      name RightShoulder
      direction -1.000000 0.000000 0.000000
      length 6.996006
      axis 0.0 0.0 90.0 xyz
      dof rx ry rz
   end
   begin
      id 17
      name RightArm
      direction -1.000000 0.000000 0.000000
      length 10.209302
      axis 0.0 0.0 90.0 xyz
      dof rx ry rz
   end
   begin
      id 18
      name RightForeArm
      direction -1.000000 0.000000 0.000000
      length 8.563163
      axis 0.0 0.0 90.0 xyz
      dof ry rz rx
   end
   begin
      id 19
      name RightHand
      direction 0.000000 0.000000 0.000000
      length 0.000000
      axis 0.0 0.0 90.0 xyz
      dof rx ry rz
   end
   begin
      id 20
      name RightHand_dum1
      direction 0.000000 0.000000 0.000000
      length 0.000000
      axis 0.0 0.0 90.0 xyz
   end
   begin
      id 21
      name RightHand_dum2
      direction -1.000000 0.000000 0.000000
      length 3.937000
      axis 0.0 0.0 90.0 xyz
   end
   begin
      id 22
      name RightHandThumb1
      direction 0.000000 0.000000 1.000000
      length 3.937000
      axis 0.0 0.0 90.0 xyz
      dof rx rz ry
   end
   begin
      id 23
      name LeftUpLeg
      direction 0.000000 -1.000000 0.000000
      length 16.346831
      axis 0.0 0.0 0.0 xyz
      dof rx ry rz
   end
   begin
      id 24
      name LeftLeg
      direction 0.000000 -1.000000 0.000000
      length 13.959795
      axis 0.0 0.0 0.0 xyz
      dof rx ry rz
   end
   begin
      id 25
      name LeftFoot
      direction 0.000000 -0.258819 0.965926
      length 5.165550
      axis 15.0 0.0 0.0 xyz
      dof rx ry rz
   end
   begin
      id 26
      name LeftToeBase
      direction 0.000000 0.000000 1.000000
      length 2.952750
      axis 0.0 0.0 0.0 xyz
      dof rx ry rz
   end
   begin
      id 27
      name RightUpLeg
      direction 0.000000 -1.000000 0.000000
      length 16.346831
      axis 0.0 0.0 0.0 xyz
      dof rx ry rz
   end
   begin
      id 28
      name RightLeg
      direction 0.000000 -1.000000 0.000000
      length 13.959795
      axis 0.0 0.0 0.0 xyz
      dof rx ry rz
   end
   begin
      id 29
      name RightFoot
      direction 0.000000 -0.258819 0.965926
      length 5.165550
      axis 15.0 0.0 0.0 xyz
      dof rx ry rz
   end
   begin
      id 30
      name RightToeBase
      direction 0.000000 0.000000 1.000000
      length 2.952750
      axis 0.0 0.0 0.0 xyz
      dof rx ry rz
   end
:hierarchy
   begin
      root Spine_dum LeftUpLeg_dum RightUpLeg_dum
      Spine_dum Spine
      LeftUpLeg_dum LeftUpLeg
      RightUpLeg_dum RightUpLeg
      Spine Spine_dum1 Spine_dum2 Spine_dum3
      Spine_dum1 Head
      Spine_dum2 LeftShoulder
      Spine_dum3 RightShoulder
      LeftShoulder LeftArm
      LeftArm LeftForeArm
      LeftForeArm LeftHand
      LeftHand LeftHand_dum1 LeftHand_dum2
      LeftHand_dum1 LeftHandThumb1
      RightShoulder RightArm
      RightArm RightForeArm
      RightForeArm RightHand
      RightHand RightHand_dum1 RightHand_dum2
      RightHand_dum1 RightHandThumb1
      LeftUpLeg LeftLeg
      LeftLeg LeftFoot
      LeftFoot LeftToeBase
      RightUpLeg RightLeg
      RightLeg RightFoot
      RightFoot RightToeBase
   end

# File created by Blade
# Date/Time:  Tue Jan 27 18:35:03 2015
# Frame Rate: 120.000 fps
#------------------------------------------------------
:FULLY-SPECIFIED
:DEGREES
599
root -4.444292 31.839364 -1.755912 -10.673050 27.217810 -15.204978
Spine 14.465717 -11.323561 -0.928465
Head 2.538465 1.620754 14.786108
LeftShoulder -11.522081 7.311796 19.540401
LeftArm 35.243246 -17.480703 -77.850108
LeftForeArm 142.609775 0.000000 127.989876
LeftHand 9.070508 -0.000000 -7.233875
LeftHandThumb1 -26.253704 0.000000 33.147579
RightShoulder -13.672242 -5.877420 -8.327838
RightArm 9.268801 -37.796588 76.021264
RightForeArm -25.493196 -0.000000 32.874751
RightHand -14.323934 -0.000000 11.917932
RightHandThumb1 -24.326973 -0.000000 -32.862282
LeftUpLeg -8.965654 -3.033401 8.895257
LeftLeg 33.477215 -0.000000 -0.000000
LeftFoot -25.713983 3.245276 -15.688300
LeftToeBase 10.320044 -0.000000 -0.000000
RightUpLeg -89.984798 9.055739 17.400648
RightLeg 99.402678 -0.000000 -0.000000
RightFoot 5.961720 4.415454 20.272092
RightToeBase 3.490029 -0.000000 -0.000000
600
root -4.452344 31.834017 -1.754945 -10.699040 27.350318 -15.185550
Spine 14.452341 -11.339565 -0.948509
Head 2.620849 1.567632 14.853190
LeftShoulder -11.599474 7.471112 19.479205
LeftArm 35.698559 -17.089270 -77.733605
LeftForeArm 142.843700 -0.000000 127.727706
LeftHand 9.045261 -0.000000 -7.111878
LeftHandThumb1 -26.253704 0.000000 33.147579
RightShoulder -13.726324 -5.912700 -8.278173
RightArm 9.196422 -37.915609 76.039909
RightForeArm -25.486545 0.000000 32.783394
RightHand -14.456076 -0.000000 11.804040
RightHandThumb1 -24.326973 -0.000000 -32.862282
LeftUpLeg -9.002356 -3.028769 8.875974
LeftLeg 33.534523 -0.000000 -0.000000
LeftFoot -25.674596 3.192360 -15.578644
LeftToeBase 10.274116 -0.000000 -0.000000
RightUpLeg -90.001778 9.056717 17.648098
RightLeg 97.764471 -0.000000 -0.000000
RightFoot 5.507545 4.081055 20.551334
RightToeBase 3.701123 -0.000000 -0.000000
601
root -4.460341 31.827816 -1.754388 -10.743068 27.508510 -15.137956
Spine 14.478572 -11.376171 -1.005009
Head 2.693584 1.552689 14.886041
LeftShoulder -11.567241 7.404163 19.519470
LeftArm 35.822730 -16.742707 -77.548646
LeftForeArm 142.981562 -0.000000 127.571063
LeftHand 9.065669 0.000000 -7.449045
LeftHandThumb1 -26.253704 0.000000 33.147579
RightShoulder -13.775512 -5.949026 -8.237396
RightArm 9.152301 -38.004607 76.074231
RightForeArm -25.395013 0.000000 32.663454
RightHand -14.449348 -0.000000 11.991990
RightHandThumb1 -24.326973 -0.000000 -32.862282
LeftUpLeg -9.007000 -3.045875 8.825347
LeftLeg 33.573084 -0.000000 -0.000000
LeftFoot -25.631456 3.126226 -15.491511
LeftToeBase 10.188656 -0.000000 -0.000000
RightUpLeg -90.032120 9.023044 17.807673
RightLeg 96.139258 -0.000000 -0.000000
RightFoot 5.174135 3.942826 20.666128
RightToeBase 3.364964 -0.000000 -0.000000
602
root -4.468868 31.820722 -1.757116 -10.784121 27.693243 -15.092179
Spine 14.499708 -11.441010 -1.050157
Head 2.763600 1.513946 14.890600
LeftShoulder -11.493893 7.358787 19.555717
LeftArm 35.959925 -16.447270 -77.386995
LeftForeArm 143.092002 -0.000000 127.420909
LeftHand 9.124182 0.000000 -7.570565
LeftHandThumb1 -26.253704 0.000000 33.147579
RightShoulder -13.812973 -6.034523 -8.226663
RightArm 9.173421 -38.088193 76.111828
RightForeArm -25.381659 0.000000 32.471247
RightHand -14.326570 -0.000000 11.993438
RightHandThumb1 -24.326973 -0.000000 -32.862282
LeftUpLeg -9.029490 -3.078387 8.768382
LeftLeg 33.619517 -0.000000 -0.000000
LeftFoot -25.595156 3.072676 -15.391863
LeftToeBase 10.152117 -0.000000 -0.000000
RightUpLeg -90.066400 8.967102 17.996466
RightLeg 94.421074 -0.000000 -0.000000
RightFoot 4.849280 3.773788 20.745074
RightToeBase 3.244124 -0.000000 -0.000000
603
root -4.475999 31.814389 -1.757494 -10.841526 27.871796 -15.049965
Spine 14.534198 -11.512784 -1.096811
Head 2.822691 1.467051 14.913160
LeftShoulder -11.453306 7.283483 19.600667
LeftArm 36.057774 -16.116456 -77.212736
LeftForeArm 143.310979 -0.000000 127.240405
LeftHand 9.093124 0.000000 -7.722021
LeftHandThumb1 -26.253704 0.000000 33.147579
RightShoulder -13.847647 -6.110970 -8.204611
RightArm 9.185471 -38.200895 76.134686
RightForeArm -25.390781 -0.000000 32.312074
RightHand -14.463256 -0.000000 11.929688
RightHandThumb1 -24.326973 -0.000000 -32.862282
LeftUpLeg -9.022354 -3.109687 8.715241
LeftLeg 33.647900 -0.000000 -0.000000
LeftFoot -25.567989 2.996471 -15.320091
LeftToeBase 10.162774 -0.000000 -0.000000
RightUpLeg -90.092932 8.901989 18.177500
RightLeg 92.683110 -0.000000 -0.000000
RightFoot 4.557653 3.709874 20.864199
RightToeBase 3.289640 -0.000000 -0.000000
604
root -4.482935 31.808722 -1.757709 -10.905687 28.036898 -15.012844
Spine 14.577611 -11.559587 -1.132212
Head 2.868264 1.412160 14.930781
LeftShoulder -11.382459 7.188159 19.623061
LeftArm 36.143029 -15.802709 -76.986708
LeftForeArm 143.446703 -0.000000 127.092609
LeftHand 9.055719 -0.000000 -7.797840
LeftHandThumb1 -26.253704 0.000000 33.147579
RightShoulder -13.890165 -6.183778 -8.162734
RightArm 9.178562 -38.247557 76.143190
RightForeArm -25.348019 -0.000000 32.198587
RightHand -14.326651 0.000000 12.218208
RightHandThumb1 -24.326973 -0.000000 -32.862282
LeftUpLeg -8.999825 -3.129483 8.669922
LeftLeg 33.664178 -0.000000 -0.000000
LeftFoot -25.532576 2.926139 -15.224431
LeftToeBase 10.183784 -0.000000 -0.000000
RightUpLeg -90.108254 8.835628 18.376874
RightLeg 90.912021 -0.000000 -0.000000
RightFoot 4.217532 3.731513 20.998672
RightToeBase 3.512300 -0.000000 -0.000000
605
root -4.487649 31.803119 -1.756412 -10.993816 28.202455 -14.965685
Spine 14.650320 -11.621500 -1.185913
Head 2.922406 1.336566 14.945663
LeftShoulder -11.314981 7.127964 19.653379
LeftArm 36.245174 -15.482374 -76.797306
LeftForeArm 143.563833 -0.000000 126.970608
LeftHand 9.019103 -0.000000 -8.034830
LeftHandThumb1 -26.253704 0.000000 33.147579
RightShoulder -13.917871 -6.233110 -8.116558
RightArm 9.155622 -38.380995 76.125642
RightForeArm -25.272884 -0.000000 32.083280
RightHand -14.341861 -0.000000 12.156137
RightHandThumb1 -24.326973 -0.000000 -32.862282
LeftUpLeg -8.938866 -3.142852 8.612477
LeftLeg 33.669084 -0.000000 -0.000000
LeftFoot -25.505518 2.835118 -15.129461
LeftToeBase 10.089976 -0.000000 -0.000000
RightUpLeg -90.106101 8.755372 18.559110
RightLeg 89.150777 -0.000000 -0.000000
RightFoot 3.895138 3.848386 21.264228
RightToeBase 3.595943 -0.000000 -0.000000
606
root -4.493898 31.797847 -1.756601 -11.088179 28.378547 -14.933302
Spine 14.735578 -11.713874 -1.225948
Head 2.954612 1.322709 14.946534
LeftShoulder -11.247339 7.032161 19.690241
LeftArm 36.309014 -15.226537 -76.638167
LeftForeArm 143.627709 -0.000000 126.845801
LeftHand 9.040047 -0.000000 -7.965864
LeftHandThumb1 -26.253704 0.000000 33.147579
RightShoulder -13.925910 -6.274765 -8.101605
RightArm 9.131601 -38.388611 76.197642
RightForeArm -25.352816 -0.000000 31.900491
RightHand -14.347833 0.000000 12.215252
RightHandThumb1 -24.326973 -0.000000 -32.862282
LeftUpLeg -8.898746 -3.160005 8.570248
LeftLeg 33.700580 -0.000000 -0.000000
LeftFoot -25.463311 2.746288 -15.031373
LeftToeBase 10.052242 -0.000000 -0.000000
RightUpLeg -90.105000 8.656172 18.755924
RightLeg 87.356681 -0.000000 -0.000000
RightFoot 3.586155 4.077348 21.767266
RightToeBase 3.598946 -0.000000 -0.000000
607
root -4.500602 31.793009 -1.755815 -11.201205 28.555924 -14.933505
Spine 14.822464 -11.801687 -1.233173
Head 2.977095 1.297715 14.939160
LeftShoulder -11.184888 6.949679 19.728801
LeftArm 36.379196 -14.917898 -76.483422
LeftForeArm 143.894755 -0.000000 126.723431
LeftHand 8.933785 -0.000000 -8.084153
LeftHandThumb1 -26.253704 0.000000 33.147579
RightShoulder -13.944052 -6.275750 -8.075444
RightArm 9.035366 -38.431467 76.256207
RightForeArm -25.405234 0.000000 31.801187
RightHand -14.330142 0.000000 12.263952
RightHandThumb1 -24.326973 -0.000000 -32.862282
LeftUpLeg -8.859280 -3.171320 8.564269
LeftLeg 33.741307 -0.000000 -0.000000
LeftFoot -25.440904 2.592194 -14.976188
LeftToeBase 10.117297 -0.000000 -0.000000
RightUpLeg -90.098510 8.541823 18.972173
RightLeg 85.555644 -0.000000 -0.000000
RightFoot 3.230208 4.403726 22.600323
RightToeBase 3.601320 -0.000000 -0.000000
608
root -4.494372 31.784587 -1.757919 -11.306504 28.806852 -14.829614
Spine 14.951258 -11.954228 -1.343342
Head 3.004210 1.287527 14.919431
LeftShoulder -11.125518 6.903427 19.740544
LeftArm 36.496504 -14.636829 -76.320001
LeftForeArm 143.849718 -0.000000 126.635283
LeftHand 9.038004 -0.000000 -8.121953
LeftHandThumb1 -26.253704 0.000000 33.147579
RightShoulder -13.942351 -6.294707 -8.066348
RightArm 8.960568 -38.477355 76.289342
RightForeArm -25.413577 -0.000000 31.708102
RightHand -14.311455 -0.000000 12.315712
RightHandThumb1 -24.326973 -0.000000 -32.862282
LeftUpLeg -8.777246 -3.312084 8.415387
LeftLeg 33.766542 -0.000000 -0.000000
LeftFoot -25.406657 2.537232 -14.910582
LeftToeBase 10.090173 -0.000000 -0.000000
RightUpLeg -90.129554 8.331847 19.102111
RightLeg 83.850436 -0.000000 -0.000000
RightFoot 2.885422 4.789800 23.433918
RightToeBase 3.358786 -0.000000 -0.000000
609
root -4.495927 31.782567 -1.757258 -11.400088 28.975297 -14.815108
Spine 15.024914 -11.983172 -1.397759
Head 3.013645 1.190479 15.099781
LeftShoulder -11.185618 6.711655 19.796789
LeftArm 36.616633 -14.073331 -76.181264
LeftForeArm 144.100413 0.000000 126.444763
LeftHand 9.023175 -0.000000 -8.189831
LeftHandThumb1 -26.253704 0.000000 33.147579
RightShoulder -13.989140 -6.341314 -7.926206
RightArm 8.964378 -38.606690 76.157106
RightForeArm -25.300442 -0.000000 31.618121
RightHand -14.245515 -0.000000 12.455373
RightHandThumb1 -24.326973 -0.000000 -32.862282
LeftUpLeg -8.739855 -3.308275 8.389059
LeftLeg 33.795791 -0.000000 -0.000000
LeftFoot -25.335471 2.401321 -14.841792
LeftToeBase 10.073434 -0.000000 -0.000000
RightUpLeg -90.149870 8.207883 19.350929
RightLeg 82.097262 -0.000000 -0.000000
RightFoot 2.514453 5.096839 24.197213
RightToeBase 3.111536 -0.000000 -0.000000
610
root -4.502546 31.776811 -1.753869 -11.509624 29.131566 -14.809310
Spine 15.093423 -12.033533 -1.412460
Head 3.060936 1.099869 15.123297
LeftShoulder -11.126025 6.680674 19.823020
LeftArm 36.778917 -13.770279 -76.083583
LeftForeArm 144.165188 0.000000 126.328181
LeftHand 9.067062 -0.000000 -8.272410
LeftHandThumb1 -26.253704 0.000000 33.147579
RightShoulder -14.022829 -6.403848 -7.897534
RightArm 8.994133 -38.701059 76.162112
RightForeArm -25.279525 -0.000000 31.419983
RightHand -14.147578 -0.000000 12.532813
RightHandThumb1 -24.326973 -0.000000 -32.862282
LeftUpLeg -8.706427 -3.284128 8.386886
LeftLeg 33.871148 -0.000000 -0.000000
LeftFoot -25.307826 2.228245 -14.776633
LeftToeBase 10.065039 -0.000000 -0.000000
RightUpLeg -90.176211 8.111657 19.614469
RightLeg 80.351354 -0.000000 -0.000000
RightFoot 2.174195 5.356197 24.956836
RightToeBase 3.201577 -0.000000 -0.000000
